<svg width="30" height="20" viewBox="0 0 30 20" fill="none" xmlns="http://www.w3.org/2000/svg">
<path d="M27.7702 0.91748C28.5522 0.91748 29.1869 1.00948 29.1869 1.79148C29.1869 2.57349 28.5314 2.49982 27.7494 2.49982L14.9994 2.49982H2.24943C1.46743 2.49982 0.853516 2.57349 0.853516 1.79148C0.853516 1.00948 1.48818 0.91748 2.27018 0.91748H27.7702ZM27.7702 6.58416C28.5522 6.58416 29.1661 6.67615 29.1661 7.45815C29.1661 8.24015 28.5522 8.16648 27.7702 8.16648H10.7494C9.96743 8.16648 9.33276 8.24015 9.33276 7.45815C9.33276 6.67615 9.98818 6.58416 10.7702 6.58416H27.7702ZM27.7702 12.2508C28.5522 12.2508 29.1661 12.3428 29.1661 13.1248C29.1661 13.9068 28.5314 13.8331 27.7494 13.8331H14.9994H2.24943C1.46743 13.8331 0.853516 13.9068 0.853516 13.1248C0.853516 12.3428 1.48818 12.2508 2.27018 12.2508H27.7702ZM27.7702 17.9175C28.5522 17.9175 29.1661 18.0095 29.1661 18.7915C29.1661 19.5735 28.5314 19.4998 27.7494 19.4998H10.7702C9.98818 19.4998 9.33276 19.5735 9.33276 18.7915C9.33276 18.0095 9.98818 17.9175 10.7702 17.9175H27.7702Z" fill="black"/>
</svg>
