<svg width="36" height="36" viewBox="0 0 36 36" fill="none" xmlns="http://www.w3.org/2000/svg">
<path d="M14.6528 11.2142L14.6531 11.2148C14.8484 11.6499 15.1735 12.4418 15.4348 13.078L15.4382 13.0864C15.5409 13.3364 15.6338 13.5626 15.7063 13.7369C15.7426 13.8241 15.7732 13.8969 15.7971 13.9525C15.809 13.9804 15.8188 14.0028 15.8265 14.0199L15.8355 14.04C15.8376 14.0443 15.8385 14.0462 15.8385 14.0462L15.8384 14.046L15.3916 14.2703M14.6528 11.2142L25.6389 23.3618C25.9579 22.4608 25.9579 21.6927 25.8614 21.5303L26.2915 21.2751C26.2914 21.2751 26.2914 21.275 26.2914 21.275C26.191 21.1059 26.0442 20.9996 25.9296 20.9296C25.8188 20.8619 25.6862 20.7983 25.5638 20.7396L25.5493 20.7327C25.4829 20.7009 25.4147 20.6682 25.3422 20.6321L25.3422 20.632C25.147 20.5349 24.5737 20.2533 24.0044 19.9793C23.4495 19.7121 22.8582 19.4324 22.6527 19.3558L22.6527 19.3557C22.4855 19.2934 22.2234 19.1972 21.9463 19.2298C21.6168 19.2686 21.3738 19.4662 21.1942 19.7381C20.9536 20.0928 20.2391 20.9265 20.0065 21.1966L20.0064 21.1966C19.9846 21.222 19.9693 21.2356 19.9608 21.2423C19.94 21.2397 19.8826 21.2275 19.7695 21.1712C19.6944 21.1339 19.5983 21.0924 19.5016 21.0507L19.4912 21.0462L19.49 21.0457C18.9635 20.8185 17.9465 20.3797 16.7703 19.3326L16.7695 19.3318C15.6788 18.3653 14.9315 17.1565 14.7184 16.789C14.705 16.7659 14.6974 16.7489 14.693 16.7377C14.6962 16.7332 14.7004 16.7276 14.7058 16.721C14.729 16.6924 14.7593 16.6612 14.8092 16.6115L14.8095 16.6113C14.9355 16.4858 15.075 16.3171 15.195 16.172L15.2052 16.1598L14.82 15.841L15.2052 16.1598C15.2787 16.071 15.3474 15.988 15.4124 15.9134L15.4125 15.9132C15.6269 15.667 15.7233 15.4671 15.825 15.2559L15.8292 15.2471C15.8428 15.2189 15.8564 15.1908 15.8706 15.1616C16.0927 14.7063 15.9707 14.3093 15.8383 14.0459L15.3916 14.2703M14.6528 11.2142C14.4838 10.839 14.2776 10.5727 14.008 10.4164C13.7476 10.2655 13.4919 10.2588 13.3538 10.2553C13.3504 10.2552 13.347 10.2551 13.3436 10.255M14.6528 11.2142L15.4212 14.9423C15.5474 14.6839 15.488 14.4623 15.3916 14.2703M15.3916 14.2703C15.3493 14.1863 15.1807 13.7755 14.9757 13.2764L14.9757 13.2763L14.9757 13.2763C14.7123 12.6348 14.3889 11.8473 14.1969 11.4195C13.9075 10.777 13.6032 10.7621 13.3288 10.7548M13.3288 10.7548L13.3453 10.255C13.3447 10.255 13.3442 10.255 13.3436 10.255M13.3288 10.7548L13.3422 10.255C13.3426 10.255 13.3431 10.255 13.3436 10.255M13.3288 10.7548L13.3436 10.255M11.122 10.9584L11.122 10.9584L11.122 10.9584ZM11.122 10.9584C10.6942 11.4105 9.70477 12.4599 9.70477 14.4403C9.70477 15.4852 10.0803 16.4853 10.462 17.2396C10.847 18.0006 11.2605 18.5539 11.3765 18.7091L11.3766 18.7092L11.3766 18.7092L11.3844 18.7197C11.3844 18.7197 11.3844 18.7197 11.3844 18.7197C11.3845 18.7198 11.3859 18.7217 11.389 18.7261L11.4032 18.7466L11.45 18.8156L11.4558 18.8242C11.9516 19.5571 14.4236 23.2111 18.2063 24.6986C19.698 25.2858 20.6796 25.5649 21.386 25.6833C22.1108 25.8049 22.5347 25.7548 22.8833 25.7126C22.9535 25.7042 23.0141 25.6969 23.0739 25.6912L11.122 10.9584ZM11.1553 30.4923C11.0438 30.4319 10.9135 30.4161 10.7908 30.4481L3.87981 32.2533C3.8053 32.2727 3.73767 32.2042 3.75813 32.1299L5.60404 25.4295C5.63965 25.3003 5.62186 25.1622 5.55468 25.0462C4.29017 22.8628 3.62507 20.387 3.62598 17.8672V17.867C3.62598 9.94759 10.1077 3.5 18.0628 3.5C21.9302 3.5 25.5506 4.99862 28.2765 7.71174C31.0018 10.4244 32.4998 14.0339 32.4998 17.8744C32.4998 25.7937 26.0181 32.2413 18.0629 32.2413H18.0555C15.6384 32.2413 13.2641 31.6345 11.1553 30.4923Z" fill="white" stroke="white" stroke-linejoin="round"/>
</svg>
